<svg width="1600" height="900" viewBox="0 0 1600 900" fill="none" xmlns="http://www.w3.org/2000/svg">
  <defs>
    <linearGradient id="characterBg" x1="0" y1="0" x2="1" y2="1">
      <stop offset="0" stop-color="#F4E8D2"/>
      <stop offset="1" stop-color="#EAD7B2"/>
    </linearGradient>
    <linearGradient id="characterPanel" x1="0" y1="0" x2="0.9" y2="1">
      <stop offset="0" stop-color="#13283E"/>
      <stop offset="1" stop-color="#1D3B57"/>
    </linearGradient>
  </defs>

  <rect width="1600" height="900" fill="url(#characterBg)"/>

  <circle cx="1320" cy="180" r="118" fill="#E6BE6E" fill-opacity="0.55"/>
  <circle cx="1250" cy="725" r="172" fill="#C65431" fill-opacity="0.14"/>
  <circle cx="220" cy="184" r="86" fill="#A0B77A" fill-opacity="0.22"/>

  <rect x="88" y="104" width="246" height="44" rx="22" fill="#C65431"/>
  <text x="211" y="133" text-anchor="middle" font-family="Arial, sans-serif" font-size="23" font-weight="700" letter-spacing="2.2" fill="#FFF9F0">OCT 2025</text>

  <text x="92" y="274" font-family="Georgia, 'Times New Roman', serif" font-size="84" font-weight="700" fill="#13283E">Character</text>
  <text x="92" y="364" font-family="Georgia, 'Times New Roman', serif" font-size="84" font-weight="700" fill="#13283E">Education Evening</text>

  <text x="92" y="438" font-family="Arial, sans-serif" font-size="29" font-weight="600" fill="#3E4C59">Exploring how schools help form virtue, habits, and integrity</text>

  <rect x="92" y="490" width="488" height="3" fill="#C65431"/>

  <rect x="92" y="560" width="654" height="186" rx="30" fill="url(#characterPanel)"/>
  <text x="132" y="624" font-family="Arial, sans-serif" font-size="27" font-weight="700" fill="#FFF9F0">An evening for parents and supporters</text>
  <text x="132" y="669" font-family="Arial, sans-serif" font-size="24" font-weight="500" fill="#F4E8D2">focused on the formation of the whole child,</text>
  <text x="132" y="705" font-family="Arial, sans-serif" font-size="24" font-weight="500" fill="#F4E8D2">beyond academic achievement alone.</text>

  <path d="M1085 278C1085 226.085 1127.09 184 1179 184H1283C1334.91 184 1377 226.085 1377 278V516H1085V278Z" fill="#A0B77A" fill-opacity="0.92"/>
  <circle cx="1230" cy="266" r="50" fill="#13283E"/>
  <rect x="1176" y="322" width="108" height="144" rx="54" fill="#13283E"/>
  <rect x="1128" y="382" width="44" height="114" rx="22" fill="#13283E"/>
  <rect x="1288" y="382" width="44" height="114" rx="22" fill="#13283E"/>
  <rect x="1188" y="468" width="34" height="124" rx="17" fill="#13283E"/>
  <rect x="1238" y="468" width="34" height="124" rx="17" fill="#13283E"/>
  <path d="M1186 372C1200 354 1217 344 1230 344C1243 344 1260 354 1274 372" stroke="#F4E8D2" stroke-width="16" stroke-linecap="round"/>
  <path d="M1128 652C1128 614.444 1158.44 584 1196 584H1270C1307.56 584 1338 614.444 1338 652V664H1128V652Z" fill="#E6BE6E"/>
  <text x="1233" y="640" text-anchor="middle" font-family="Arial, sans-serif" font-size="22" font-weight="700" fill="#13283E">Virtue</text>
  <text x="1233" y="702" text-anchor="middle" font-family="Arial, sans-serif" font-size="20" font-weight="600" fill="#13283E">Character</text>
  <text x="1233" y="734" text-anchor="middle" font-family="Arial, sans-serif" font-size="20" font-weight="600" fill="#13283E">Formation</text>
</svg>
