<?xml version="1.0" encoding="UTF-8"?>
<svg version="1.2" baseProfile="tiny-ps"
     xmlns="http://www.w3.org/2000/svg"
     width="512" height="512" viewBox="0 0 512 512">
  <title>Families for Education Monogram</title>
  <rect width="512" height="512" fill="#FBF8EF"/>
  <rect x="5.84" y="5.84"
        width="500.32" height="500.32"
        fill="none" stroke="#00264D" stroke-width="11.68"/>
  <path fill="#00264D" d="M 363.45 82.61 L 360.18 84.01 L 356.91 84.94 L 354.1 85.41 L 350.36 85.88 L 341.96 86.34 L 202.74 86.34 L 180.79 85.88 L 166.77 84.94 L 151.36 84.94 L 147.62 85.41 L 146.22 85.88 L 144.82 86.34 L 142.95 88.21 L 142.95 91.01 L 142.95 91.95 L 144.35 93.35 L 145.28 93.81 L 147.15 94.28 L 155.56 94.75 L 158.36 95.21 L 160.7 95.68 L 162.57 96.15 L 163.97 96.61 L 165.37 97.08 L 169.11 98.95 L 171.45 100.81 L 173.31 102.68 L 174.25 104.08 L 175.18 105.48 L 175.65 106.41 L 176.12 107.35 L 176.58 108.75 L 177.99 114.35 L 178.45 117.62 L 178.92 122.28 L 179.39 135.35 L 179.39 255.77 L 178.92 346.78 L 178.45 364.51 L 177.99 373.85 L 177.52 381.78 L 177.05 386.92 L 176.58 391.12 L 176.12 394.38 L 175.65 397.19 L 175.18 399.52 L 174.25 402.79 L 173.31 405.12 L 172.85 406.05 L 171.91 407.45 L 170.98 408.85 L 168.64 411.19 L 167.24 412.12 L 164.44 413.52 L 162.57 413.99 L 160.7 414.45 L 157.43 414.92 L 150.89 414.92 L 148.09 415.39 L 145.28 416.32 L 144.35 417.25 L 143.88 418.19 L 143.88 421.45 L 144.35 422.39 L 145.75 423.79 L 147.15 424.26 L 149.02 424.72 L 155.09 425.19 L 159.3 425.19 L 174.25 424.72 L 187.8 423.79 L 226.1 423.79 L 240.12 424.72 L 258.8 425.19 L 275.15 425.19 L 283.56 424.72 L 285.43 424.26 L 286.83 423.79 L 287.77 423.32 L 289.17 421.92 L 289.64 420.99 L 289.64 417.72 L 289.17 416.79 L 288.23 415.85 L 287.3 415.39 L 286.36 414.92 L 284.5 414.45 L 278.89 413.99 L 269.55 413.99 L 264.88 413.52 L 261.14 413.05 L 258.8 412.59 L 256.93 412.12 L 252.73 410.72 L 251.8 410.25 L 250.86 409.79 L 249.46 408.85 L 247.59 407.45 L 245.26 405.12 L 243.85 403.25 L 242.45 400.92 L 241.52 398.59 L 241.05 397.19 L 240.58 395.78 L 240.12 393.92 L 239.65 392.05 L 239.18 389.25 L 238.72 386.45 L 238.25 382.25 L 237.78 377.12 L 237.31 370.11 L 236.85 357.98 L 237.31 255.77 L 288.23 255.77 L 299.91 256.23 L 305.52 256.7 L 309.72 257.17 L 312.06 257.63 L 313.93 258.1 L 318.13 259.5 L 319.07 259.97 L 321.4 261.37 L 323.27 262.77 L 325.61 265.1 L 327.01 266.97 L 328.41 269.77 L 328.88 271.17 L 329.34 272.57 L 329.81 274.9 L 330.28 277.7 L 330.28 280.97 L 330.74 284.24 L 331.21 285.64 L 332.15 287.04 L 333.08 287.97 L 334.48 288.44 L 337.75 288.44 L 338.69 287.97 L 340.55 286.1 L 341.02 285.17 L 341.49 283.77 L 341.96 281.44 L 342.42 275.37 L 342.42 269.3 L 342.89 263.7 L 343.36 258.57 L 343.82 253.9 L 344.29 249.7 L 344.76 245.97 L 345.23 242.7 L 345.69 239.43 L 348.5 224.96 L 348.5 219.83 L 348.03 218.43 L 346.63 217.03 L 345.69 216.56 L 342.89 216.56 L 341.96 217.03 L 338.69 220.3 L 336.82 223.56 L 333.08 227.3 L 331.68 228.23 L 330.28 229.16 L 329.34 229.63 L 327.94 230.1 L 326.54 230.56 L 324.2 231.03 L 321.4 231.5 L 316.26 231.96 L 236.85 231.5 L 236.85 110.15 L 237.78 109.21 L 267.21 109.21 L 305.52 109.68 L 315.33 110.15 L 320 110.61 L 323.74 111.08 L 326.07 111.55 L 327.94 112.01 L 332.15 113.41 L 335.88 115.28 L 337.28 116.22 L 338.69 117.15 L 341.96 120.42 L 343.36 122.28 L 344.76 124.62 L 345.23 125.55 L 345.69 126.48 L 346.16 127.88 L 346.63 129.28 L 347.09 131.15 L 347.56 133.02 L 348.03 135.82 L 348.03 138.15 L 348.5 140.95 L 348.96 142.82 L 349.43 143.75 L 349.9 144.69 L 351.3 146.09 L 352.7 146.55 L 355.97 146.55 L 357.84 145.62 L 358.77 144.69 L 359.24 143.75 L 359.71 142.82 L 360.18 141.42 L 360.64 139.55 L 361.11 136.75 L 361.58 133.02 L 362.04 128.82 L 362.51 120.42 L 362.98 116.22 L 363.45 112.48 L 363.91 109.21 L 364.38 105.95 L 364.85 103.15 L 365.31 100.35 L 366.25 95.68 L 367.65 91.01 L 368.12 88.68 L 368.12 84.94 L 367.65 84.01 L 366.72 83.08 L 365.78 82.61 Z"/>
</svg>
